<?xml version="1.0" encoding="utf-8"?>
<!-- Generator: Adobe Illustrator 27.0.0, SVG Export Plug-In . SVG Version: 6.00 Build 0)  -->
<svg version="1.1" id="Layer_1" xmlns="http://www.w3.org/2000/svg" xmlns:xlink="http://www.w3.org/1999/xlink" x="0px" y="0px"
	 viewBox="0 0 3654.4 666.7" style="enable-background:new 0 0 3654.4 666.7;" xml:space="preserve">
<style type="text/css">
	.st0{enable-background:new    ;}
	.st1{fill:#0E122E;}
	.st2{fill-rule:evenodd;clip-rule:evenodd;fill:#031FEB;}
</style>
<g class="st0">
	<path class="st1" d="M1039.7,217.9v86.9H801.3v-86.9L1039.7,217.9L1039.7,217.9z M850.9,588.6V199c0-28.6,5.4-52.4,16.2-71.3
		s25.7-33.1,44.9-42.5c19.1-9.4,41.3-14.1,66.4-14.1c16.4,0,31.9,1.2,46.5,3.7s25.4,4.7,32.5,6.6l-18.8,86.4
		c-4.3-1.4-9.6-2.7-15.8-3.6c-6.2-1-12-1.4-17.5-1.4c-13.8,0-23.3,3.1-28.5,9.2c-5.2,6.1-7.7,14.5-7.7,25.1v391.5H850.9z"/>
	<path class="st1" d="M1250.6,595.6c-38.9,0-72.4-8-100.3-24c-27.9-16-49.4-38.4-64.4-67.1c-15-28.7-22.6-62.1-22.6-100
		c0-38.1,7.5-71.6,22.6-100.3c15-28.7,36.5-51.1,64.4-67.1s61.3-24,100.3-24c38.9,0,72.4,8,100.3,24c27.9,16,49.4,38.4,64.4,67.1
		s22.6,62.1,22.6,100.3c0,38-7.5,71.3-22.6,100c-15,28.7-36.5,51.1-64.4,67.1C1322.9,587.6,1289.5,595.6,1250.6,595.6z
		 M1251.3,506.5c14.2,0,26.1-4.3,36-13c9.8-8.7,17.3-20.8,22.6-36.2c5.2-15.4,7.8-33.3,7.8-53.6c0-20.6-2.6-38.6-7.8-54.1
		c-5.2-15.4-12.8-27.5-22.6-36.2c-9.8-8.7-21.8-13-36-13c-14.6,0-27,4.3-37,13c-10.1,8.7-17.7,20.8-22.9,36.2s-7.8,33.5-7.8,54.1
		c0,20.3,2.6,38.1,7.8,53.6c5.2,15.4,12.9,27.5,22.9,36.2S1236.6,506.5,1251.3,506.5z"/>
	<path class="st1" d="M1491.6,588.6V217.9h114.6v67.6h3.9c6.8-24.5,17.8-42.7,33.1-54.7s33.1-18,53.3-18c5.5,0,11.1,0.4,16.9,1.1
		c5.8,0.7,11.2,1.8,16.2,3.3v102.6c-5.6-1.9-13-3.5-22.1-4.6s-17.2-1.7-24.3-1.7c-14,0-26.6,3.1-37.8,9.3
		c-11.2,6.2-20,14.8-26.3,25.8c-6.4,11-9.5,23.9-9.5,38.7v201.3H1491.6z"/>
	<path class="st1" d="M1771,588.6V217.9h112.2V286h4.1c7.7-22.5,20.8-40.3,39.1-53.3s40.2-19.5,65.6-19.5c25.7,0,47.8,6.6,66.1,19.8
		s30,30.9,35,53.1h3.9c6.9-22,20.4-39.7,40.5-53s43.8-19.9,71.2-19.9c35.1,0,63.6,11.2,85.4,33.7c21.9,22.4,32.8,53.2,32.8,92.3
		v249.5h-118V366.1c0-18.5-4.7-32.6-14.2-42.4c-9.5-9.7-21.8-14.6-36.9-14.6c-16.3,0-29,5.3-38.3,15.8
		c-9.3,10.5-13.9,24.7-13.9,42.4v221.3h-113.4V364.9c0-17.2-4.7-30.8-14-40.8s-21.6-15-36.9-15c-10.3,0-19.4,2.5-27.3,7.4
		c-7.9,4.9-14,11.9-18.5,20.9c-4.4,9-6.6,19.6-6.6,31.9v219.4L1771,588.6L1771,588.6z"/>
</g>
<g class="st0">
	<path class="st1" d="M2462.8,584.3l-112.9-370.7h59.9l80.1,283.8h3.9l79.2-283.8h60.8l78.2,282.9h3.9l80.1-282.9h59.9L2743,584.3
		h-56l-81.1-284.8h-5.8L2519,584.3H2462.8z"/>
	<path class="st1" d="M2926,151.8c-11.1,0-20.6-3.8-28.6-11.3c-8-7.6-11.9-16.7-11.9-27.3s4-19.7,11.9-27.3
		c8-7.6,17.5-11.3,28.6-11.3s20.6,3.8,28.6,11.3c8,7.6,11.9,16.7,11.9,27.3s-4,19.7-11.9,27.3C2946.6,148,2937.1,151.8,2926,151.8z
		 M2897,584.3V213.6h57v370.7H2897z"/>
	<path class="st1" d="M3286.8,296.6l-51.2,14.5c-3.2-8.5-7.9-16.9-14.1-25s-14.6-14.8-25.2-20.2s-24.2-8-40.8-8
		c-22.7,0-41.6,5.2-56.6,15.6s-22.6,23.5-22.6,39.5c0,14.2,5.1,25.3,15.4,33.5s26.4,15,48.3,20.5l55,13.5
		c33.1,8,57.8,20.3,74.1,36.8c16.2,16.5,24.4,37.7,24.4,63.6c0,21.2-6.1,40.2-18.2,57c-12.1,16.7-29.1,29.9-50.8,39.6
		c-21.7,9.7-47,14.5-75.8,14.5c-37.8,0-69.1-8.2-93.9-24.6c-24.8-16.4-40.5-40.4-47.1-71.9l54.1-13.5c5.1,20,14.9,34.9,29.3,44.9
		s33.3,15,56.6,15c26.5,0,47.7-5.7,63.4-17c15.7-11.3,23.5-25,23.5-40.9c0-12.9-4.5-23.7-13.5-32.5s-22.8-15.3-41.5-19.7l-61.8-14.5
		c-34-8-58.9-20.6-74.7-37.5c-15.8-17-23.8-38.3-23.8-63.8c0-20.9,5.9-39.4,17.7-55.5c11.8-16.1,28-28.7,48.5-37.9
		c20.5-9.2,43.8-13.8,69.9-13.8c36.7,0,65.5,8,86.5,24.1C3263,249,3278,270.2,3286.8,296.6z"/>
	<path class="st1" d="M3500.9,592c-35.7,0-66.5-7.9-92.3-23.8c-25.8-15.8-45.7-38-59.6-66.6s-20.9-61.8-20.9-99.8s7-71.5,20.9-100.5
		s33.4-51.7,58.4-68.1c25-16.3,54.3-24.5,87.7-24.5c19.3,0,38.4,3.2,57.2,9.7c18.8,6.4,36,16.9,51.4,31.3
		c15.4,14.4,27.8,33.4,36.9,57.1c9.2,23.7,13.8,52.8,13.8,87.4v24.1h-285.8v-49.2h227.8c0-20.9-4.1-39.6-12.4-56s-20-29.4-35.2-38.9
		s-33.1-14.2-53.7-14.2c-22.7,0-42.3,5.6-58.8,16.8c-16.5,11.2-29.2,25.7-38,43.6s-13.3,37-13.3,57.4v32.8c0,28,4.9,51.7,14.6,71.1
		s23.3,34.1,40.7,44.2c17.4,9.9,37.6,14.9,60.6,14.9c15,0,28.5-2.1,40.7-6.4c12.1-4.3,22.6-10.7,31.5-19.3
		c8.8-8.6,15.7-19.3,20.5-32.2l55,15.4c-5.8,18.7-15.5,35-29.2,49.1c-13.7,14.1-30.6,25-50.7,32.8C3548.6,588.1,3526,592,3500.9,592
		z"/>
</g>
<path class="st2" d="M366.7,233.3c0-18.4-14.9-33.3-33.3-33.3c-18.4,0-33.3,14.9-33.3,33.3V300h-66.7c-18.4,0-33.3,14.9-33.3,33.3
	c0,18.4,14.9,33.3,33.3,33.3H300v66.7c0,18.4,14.9,33.3,33.3,33.3c18.4,0,33.3-14.9,33.3-33.3v-66.7h66.7
	c18.4,0,33.3-14.9,33.3-33.3c0-18.4-14.9-33.3-33.3-33.3h-66.7V233.3z M175,12.9C218.3,3.3,270.8,0,333.3,0s115,3.3,158.3,12.9
	c43.7,9.7,80,26.3,107.9,54.2C627.5,95,644,131.3,653.7,175c9.6,43.3,12.9,95.8,12.9,158.3s-3.3,115-12.9,158.3
	c-9.7,43.7-26.3,80-54.2,107.9c-27.9,27.9-64.2,44.5-107.9,54.2c-43.3,9.6-95.8,12.9-158.3,12.9s-115-3.3-158.3-12.9
	c-43.7-9.7-80-26.3-107.9-54.2c-27.9-27.9-44.5-64.2-54.2-107.9C3.3,448.4,0,395.9,0,333.3s3.3-115,12.9-158.3
	c9.7-43.7,26.3-80,54.2-107.9S131.3,22.6,175,12.9z"/>
</svg>
